<svg width="40" height="40" viewBox="0 0 40 40" fill="none" xmlns="http://www.w3.org/2000/svg">
<rect x="1" y="1" width="38" height="38" rx="3" stroke="#062630" stroke-width="2"/>
<path d="M14.14 25.444L20.836 20.428C21.764 19.74 22.444 19.036 22.876 18.316C23.308 17.58 23.524 16.788 23.524 15.94C23.524 14.868 23.22 14.028 22.612 13.42C22.004 12.796 21.164 12.484 20.092 12.484C19.084 12.484 18.26 12.796 17.62 13.42C16.98 14.044 16.532 14.956 16.276 16.156H13.636C13.7 14.86 14.02 13.748 14.596 12.82C15.188 11.876 15.956 11.156 16.9 10.66C17.86 10.164 18.924 9.916 20.092 9.916C21.34 9.916 22.42 10.172 23.332 10.684C24.26 11.18 24.98 11.876 25.492 12.772C26.004 13.668 26.26 14.724 26.26 15.94C26.26 17.188 25.94 18.348 25.3 19.42C24.66 20.492 23.692 21.5 22.396 22.444L16.468 26.692V26.932H25.876V29.5H14.14V25.444Z" fill="#062630"/>
</svg>
