<svg width="40" height="40" viewBox="0 0 40 40" fill="none" xmlns="http://www.w3.org/2000/svg">
<rect x="1" y="1" width="38" height="38" rx="3" stroke="#062630" stroke-width="2"/>
<path d="M26.26 24.388C26.26 25.476 25.988 26.436 25.444 27.268C24.916 28.1 24.188 28.748 23.26 29.212C22.332 29.66 21.268 29.884 20.068 29.884C18.756 29.884 17.62 29.652 16.66 29.188C15.7 28.708 14.956 28.02 14.428 27.124C13.9 26.212 13.62 25.132 13.588 23.884H16.204C16.364 24.988 16.78 25.836 17.452 26.428C18.124 27.02 18.988 27.316 20.044 27.316C20.732 27.316 21.332 27.188 21.844 26.932C22.372 26.676 22.78 26.316 23.068 25.852C23.356 25.372 23.5 24.82 23.5 24.196C23.5 23.252 23.196 22.484 22.588 21.892C21.996 21.3 21.204 21.004 20.212 21.004H17.956V18.46H20.212C21.236 18.46 22.06 18.188 22.684 17.644C23.308 17.1 23.62 16.396 23.62 15.532C23.62 14.62 23.3 13.884 22.66 13.324C22.036 12.764 21.196 12.484 20.14 12.484C19.036 12.484 18.14 12.796 17.452 13.42C16.764 14.044 16.308 14.956 16.084 16.156H13.468C13.532 14.828 13.844 13.7 14.404 12.772C14.964 11.844 15.732 11.14 16.708 10.66C17.684 10.164 18.836 9.916 20.164 9.916C21.38 9.916 22.452 10.14 23.38 10.588C24.308 11.036 25.028 11.66 25.54 12.46C26.068 13.26 26.332 14.22 26.332 15.34C26.332 16.38 26.052 17.268 25.492 18.004C24.948 18.74 24.22 19.228 23.308 19.468V19.852C24.204 20.092 24.916 20.62 25.444 21.436C25.988 22.236 26.26 23.22 26.26 24.388Z" fill="#062630"/>
</svg>
